<svg xmlns="http://www.w3.org/2000/svg" viewBox="0 0 128 128" role="img" aria-labelledby="title desc">
  <title id="title">EARTH LOOP MARKETING</title>
  <desc id="desc">A deep emerald Earth Loop logo mark with a champagne holographic E and red orbit point.</desc>
  <defs>
    <linearGradient id="emerald" x1="16" x2="112" y1="10" y2="118" gradientUnits="userSpaceOnUse">
      <stop offset="0" stop-color="#0f5d50" />
      <stop offset="0.48" stop-color="#06362f" />
      <stop offset="1" stop-color="#041b17" />
    </linearGradient>
    <linearGradient id="hologold" x1="31" x2="98" y1="29" y2="98" gradientUnits="userSpaceOnUse">
      <stop offset="0" stop-color="#6ee7df" />
      <stop offset="0.2" stop-color="#9d8cff" />
      <stop offset="0.43" stop-color="#f46f6a" />
      <stop offset="0.65" stop-color="#f5dd8b" />
      <stop offset="1" stop-color="#c49242" />
    </linearGradient>
    <linearGradient id="edge" x1="24" x2="104" y1="16" y2="112" gradientUnits="userSpaceOnUse">
      <stop offset="0" stop-color="#ffffff" stop-opacity="0.36" />
      <stop offset="0.52" stop-color="#f5dd8b" stop-opacity="0.18" />
      <stop offset="1" stop-color="#000000" stop-opacity="0.38" />
    </linearGradient>
    <filter id="shadow" x="-20%" y="-20%" width="140%" height="140%" color-interpolation-filters="sRGB">
      <feDropShadow dx="0" dy="10" stdDeviation="8" flood-color="#000000" flood-opacity="0.38" />
      <feDropShadow dx="0" dy="0" stdDeviation="2" flood-color="#e7c76d" flood-opacity="0.24" />
    </filter>
    <pattern id="grain" width="8" height="8" patternUnits="userSpaceOnUse">
      <path d="M1 2h1M5 1h1M3 6h1M7 5h1" stroke="#ffffff" stroke-opacity="0.08" stroke-width="0.7" />
    </pattern>
  </defs>
  <rect x="8" y="8" width="112" height="112" rx="20" fill="url(#emerald)" />
  <rect x="8" y="8" width="112" height="112" rx="20" fill="url(#grain)" opacity="0.78" />
  <path d="M21 28.5h86" stroke="#f3db91" stroke-opacity="0.16" stroke-width="1" />
  <path d="M21 99.5h86" stroke="#000000" stroke-opacity="0.34" stroke-width="1" />
  <g filter="url(#shadow)">
    <path
      d="M35 29h60v17H66v10h23v16H66v10h32v17H35l22-19V48L35 29Z"
      fill="url(#hologold)"
    />
    <path
      d="M35 29h60v17H66v10h23v16H66v10h32v17H35l22-19V48L35 29Z"
      fill="url(#edge)"
      opacity="0.35"
    />
  </g>
  <circle cx="44" cy="64" r="6.5" fill="#d84b42" />
  <circle cx="44" cy="64" r="2.4" fill="#f8b1a8" opacity="0.58" />
  <path d="M31 103c20-10 44-10 66 0" fill="none" stroke="#f5dd8b" stroke-opacity="0.18" stroke-width="1.4" />
</svg>
